<svg width="52" height="52" viewBox="0 0 170 143" fill="none" xmlns="http://www.w3.org/2000/svg">
  <path class="pl"  d="M97.184 119.282l.168.056c24.351 8.142 47.792 8.986 47.792 8.986s5.521-50.572-11.483-82.89C116.657 13.118 78.471 0 78.471 0S-1.157 23.578.012 68.52c1.168 44.94 31.36 66.9 31.36 66.9s7.362-7.096 17.528-16.596l.49-.458c.73.817 1.476 1.608 2.238 2.371C67.337 136.442 86.08 143 86.08 143l11.105-23.718z" fill="url(#paint0_linear)"/>
  <g style="mix-blend-mode:multiply">
    <path class="pr" d="M121.184 119.282l.168.056c24.351 8.142 47.792 8.986 47.792 8.986s5.521-50.572-11.483-82.89C140.657 13.118 102.47 0 102.47 0S22.844 23.578 24.013 68.52c1.168 44.94 31.36 66.9 31.36 66.9s7.362-7.096 17.528-16.596l.49-.458c.73.817 1.476 1.608 2.238 2.371C91.337 136.442 110.08 143 110.08 143l11.105-23.718z" fill="url(#paint1_linear)"/>
  </g>
  <defs>
    <linearGradient id="paint0_linear" x1="73" x2="2.395" y2="144.173" gradientUnits="userSpaceOnUse">
      <stop offset=".326" stop-color="#D80D5C"/>
      <stop offset="1" stop-color="#FF005E"/>
    </linearGradient>
    <linearGradient id="paint1_linear" x1="97" x2="26.395" y2="144.173" gradientUnits="userSpaceOnUse">
      <stop offset=".265" stop-color="#5A9AFE"/>
      <stop offset="1" stop-color="#85C6FE"/>
    </linearGradient>
  </defs>
</svg>